<?xml version="1.0" encoding="UTF-8"?>
<svg xmlns="http://www.w3.org/2000/svg" version="1.1" viewBox="0 0 200 48">
  <defs>
    <style>
      .cls-1, .cls-2, .cls-3 {
        fill-rule: evenodd;
      }

      .cls-1, .cls-4 {
        fill: #fff;
      }

      .cls-5, .cls-3 {
        fill: #231f20;
      }

      .cls-2 {
        fill: #85c742;
      }

      .cls-6 {
        display: none;
      }
    </style>
  </defs>
  <!-- Generator: Adobe Illustrator 28.6.0, SVG Export Plug-In . SVG Version: 1.2.0 Build 709)  -->
  <g>
    <g id="Layer_1" class="cls-6">
      <path class="cls-2" d="M42.8,32c4.3-4.4,4.3-11.3,0-15.7C35.4,8.7,25.6,2.7,15.2.4,9.6-.9,4.2,2.5,2.6,8c-3.1,10.4-3.6,22.1-.4,32.5,1.7,5.5,7.4,8.4,13,7.1,10.6-2.5,20.1-7.8,27.6-15.6ZM28.2,21.3c1.9,1.5,1.9,4.4,0,5.8-2.9,2.2-6.1,4-9.5,5.4-2.3.9-4.8-.5-5-3-.4-3.5-.2-7.3.3-11,.4-2.4,2.9-3.8,5.1-2.8,3.2,1.4,6.2,3.3,9.1,5.5h0Z"/>
      <path class="cls-1" d="M141,23.9V6.7h6v9l.4-.3c.8-.6,1.7-1,2.6-1.3,1-.3,2.1-.5,3.4-.5s3.3.3,4.7.9c1.4.6,2.6,1.4,3.5,2.4,1,1,1.7,2.2,2.2,3.5.5,1.3.8,2.8.8,4.3s-.3,3-.8,4.3c-.5,1.3-1.3,2.5-2.3,3.5-1,1-2.2,1.8-3.6,2.4-1.4.6-2.9.9-4.7.9-6.6,0-12.3-4.7-12.3-11.8h0ZM152.7,18.5c-.8,0-1.6.1-2.3.4-.7.3-1.4.7-1.9,1.2-.5.5-1,1.2-1.3,1.9-.3.7-.5,1.6-.5,2.5s.1,1.7.5,2.5h0s0,0,0,0c.3.7.7,1.4,1.3,1.9h0s0,0,0,0c.6.5,1.2.9,1.9,1.2h0s0,0,0,0c.7.3,1.5.4,2.3.4.8,0,1.6-.1,2.3-.4h0c.7-.3,1.4-.7,1.9-1.3.6-.5,1-1.2,1.3-1.9.3-.8.5-1.6.5-2.5s-.2-1.7-.5-2.5c-.3-.7-.7-1.4-1.3-1.9-.5-.5-1.2-1-1.9-1.2-.7-.3-1.5-.5-2.3-.4h0Z"/>
      <path class="cls-4" d="M167.5,34.9V6.7h6v28.3h-6Z"/>
      <path class="cls-1" d="M183.4,14.4c1.4-.6,3-.9,4.8-.9s3.4.3,4.8.9h0c1.5.6,2.7,1.4,3.7,2.4h0c1,1,1.9,2.2,2.4,3.5h0c.6,1.3.9,2.8.9,4.3s0,.8,0,1h0s0,0,0,0c0,.2,0,.4,0,.5h-17.6v.3c.3.7.6,1.3,1,1.9.4.5.8,1,1.4,1.4h0s0,0,0,0c.5.4,1.1.7,1.7.9h0c.6.2,1.3.3,1.9.3,1,0,2-.2,2.8-.7.7-.4,1.3-.9,1.7-1.6h6.5c-.3.8-.8,1.6-1.3,2.4-.7.9-1.5,1.7-2.4,2.3-.9.7-2,1.2-3.3,1.6h0c-1.2.4-2.6.6-4.1.6s-3.3-.3-4.8-.9c-1.4-.6-2.7-1.4-3.7-2.4-1-1-1.9-2.2-2.4-3.5-.6-1.4-.9-2.8-.9-4.3,0-1.5.3-2.9.9-4.3.6-1.3,1.4-2.5,2.4-3.5,1-1,2.3-1.8,3.7-2.4h0ZM188.2,18.1c-1.4,0-2.6.3-3.5,1-1,.7-1.7,1.6-2.1,2.7v.3c-.1,0,11.2,0,11.2,0v-.3c-.5-1.1-1.2-2-2.1-2.7-.9-.7-2.1-1.1-3.4-1.1h0Z"/>
      <path class="cls-4" d="M102.5,24.5c0-3.3.9-6,2.5-7.9,1.6-1.9,4.1-3,7.3-3s6,1.2,7.7,2.8l.2.2.2-.2c1.6-1.6,4.1-2.8,7.7-2.8s5.7,1.1,7.3,3c1.7,1.9,2.5,4.6,2.5,7.9v10.4h-6v-11c0-1.2-.3-2.5-.9-3.6-.6-1.1-1.7-1.8-3.2-1.8s-2.7.6-3.4,1.6c-.8,1-1.1,2.3-1.2,3.7v11.2h-6v-11.2c0-1.4-.4-2.7-1.2-3.7-.8-1-1.9-1.6-3.4-1.6s-2.5.8-3.2,1.8c-.6,1-.9,2.4-.9,3.6v11h-6v-10.4h0ZM60.2,24.5c0-3.5,1.3-6,3.4-7.7,2.1-1.7,4.9-2.5,8.1-2.5h2.8v5h-2.5c-1.8,0-3.3.5-4.3,1.5h0c-1,1-1.5,2.6-1.5,4.5v9.6h-5.9s0-10.4,0-10.4ZM77.6,25.3v-11h6v10.8c0,1,.1,1.9.3,2.6.2.7.5,1.3.9,1.7h0s0,0,0,0c.4.4.9.7,1.6.9.6.2,1.3.3,2,.3.7,0,1.4,0,2-.3.6-.2,1.1-.5,1.5-.9.4-.5.8-1,1-1.7.2-.7.3-1.6.3-2.6v-10.8h6v11c0,1.9-.3,3.5-.8,4.8-.5,1.3-1.3,2.4-2.2,3.2-1,.8-2.1,1.4-3.4,1.8-1.3.4-2.8.6-4.3.6s-3-.2-4.3-.6c-1.3-.4-2.4-1-3.4-1.8-1-.8-1.7-1.9-2.2-3.2-.5-1.3-.8-2.9-.8-4.8Z"/>
    </g>
    <g id="Layer_2">
      <path class="cls-3" d="M42.8,32c4.3-4.4,4.3-11.3,0-15.7C35.4,8.7,25.6,2.7,15.2.3,9.6-.9,4.2,2.5,2.6,8c-3.1,10.4-3.6,22.1-.4,32.5,1.7,5.5,7.4,8.4,13,7.1,10.6-2.5,20.1-7.8,27.6-15.6ZM28.2,21.3c1.9,1.5,1.9,4.4,0,5.8-2.9,2.2-6.1,4-9.5,5.4-2.3.9-4.8-.5-5-3-.4-3.5-.2-7.3.3-11,.4-2.4,2.9-3.8,5.1-2.8,3.2,1.4,6.2,3.3,9.1,5.5h0Z"/>
      <path class="cls-3" d="M141,24.2V7h6v9l.4-.3c.8-.6,1.7-1,2.6-1.3,1-.3,2.1-.5,3.4-.5s3.3.3,4.7.9c1.4.6,2.6,1.4,3.5,2.4,1,1,1.7,2.2,2.2,3.5.5,1.3.8,2.8.8,4.3s-.3,3-.8,4.3c-.5,1.3-1.3,2.5-2.3,3.5-1,1-2.2,1.8-3.6,2.4-1.4.6-2.9.9-4.7.9-6.6,0-12.3-4.7-12.3-11.8h0ZM152.7,18.9c-.8,0-1.6.1-2.3.4-.7.3-1.4.7-1.9,1.2-.5.5-1,1.2-1.3,1.9-.3.7-.5,1.6-.5,2.5s.1,1.7.5,2.5h0s0,0,0,0c.3.7.7,1.4,1.3,1.9h0s0,0,0,0c.6.5,1.2.9,1.9,1.2h0s0,0,0,0c.7.3,1.5.4,2.3.4.8,0,1.6-.1,2.3-.4h0c.7-.3,1.4-.7,1.9-1.3.6-.5,1-1.2,1.3-1.9.3-.8.5-1.6.5-2.5s-.2-1.7-.5-2.5c-.3-.7-.7-1.4-1.3-1.9-.5-.5-1.2-1-1.9-1.2-.7-.3-1.5-.5-2.3-.4h0Z"/>
      <path class="cls-5" d="M167.5,35.3V7h6v28.3h-6Z"/>
      <path class="cls-3" d="M183.4,14.8c1.4-.6,3-.9,4.8-.9s3.4.3,4.8.9h0c1.5.6,2.7,1.4,3.7,2.4h0c1,1,1.9,2.2,2.4,3.5h0c.6,1.3.9,2.8.9,4.3s0,.8,0,1h0s0,0,0,0c0,.2,0,.4,0,.5h-17.6v.3c.3.7.6,1.3,1,1.9.4.5.8,1,1.4,1.4h0s0,0,0,0c.5.4,1.1.7,1.7.9h0c.6.2,1.3.3,1.9.3,1,0,2-.2,2.8-.7.7-.4,1.3-.9,1.7-1.6h6.5c-.3.8-.8,1.6-1.3,2.4-.7.9-1.5,1.7-2.4,2.3-.9.7-2,1.2-3.3,1.6h0c-1.2.4-2.6.6-4.1.6s-3.3-.3-4.8-.9c-1.4-.6-2.7-1.4-3.7-2.4-1-1-1.9-2.2-2.4-3.5-.6-1.4-.9-2.8-.9-4.3,0-1.5.3-2.9.9-4.3.6-1.3,1.4-2.5,2.4-3.5,1-1,2.3-1.8,3.7-2.4h0ZM188.2,18.5c-1.4,0-2.6.3-3.5,1-1,.7-1.7,1.6-2.1,2.7v.3c-.1,0,11.2,0,11.2,0v-.3c-.5-1.1-1.2-2-2.1-2.7-.9-.7-2.1-1.1-3.4-1.1h0Z"/>
      <path class="cls-5" d="M102.5,24.9c0-3.3.9-6,2.5-7.9,1.6-1.9,4.1-3,7.3-3s6,1.2,7.7,2.8l.2.2.2-.2c1.6-1.6,4.1-2.8,7.7-2.8s5.7,1.1,7.3,3c1.7,1.9,2.5,4.6,2.5,7.9v10.4h-6v-11c0-1.2-.3-2.5-.9-3.6-.6-1.1-1.7-1.8-3.2-1.8s-2.7.6-3.4,1.6c-.8,1-1.1,2.3-1.2,3.7v11.2h-6v-11.2c0-1.4-.4-2.7-1.2-3.7-.8-1-1.9-1.6-3.4-1.6s-2.5.8-3.2,1.8c-.6,1-.9,2.4-.9,3.6v11h-6v-10.4h0ZM60.2,24.9c0-3.5,1.3-6,3.4-7.7,2.1-1.7,4.9-2.5,8.1-2.5h2.8v5h-2.5c-1.8,0-3.3.5-4.3,1.5h0c-1,1-1.5,2.6-1.5,4.5v9.6h-5.9s0-10.4,0-10.4ZM77.6,25.6v-11h6v10.8c0,1,.1,1.9.3,2.6.2.7.5,1.3.9,1.7h0s0,0,0,0c.4.4.9.7,1.6.9.6.2,1.3.3,2,.3.7,0,1.4,0,2-.3.6-.2,1.1-.5,1.5-.9.4-.5.8-1,1-1.7.2-.7.3-1.6.3-2.6v-10.8h6v11c0,1.9-.3,3.5-.8,4.8-.5,1.3-1.3,2.4-2.2,3.2-1,.8-2.1,1.4-3.4,1.8-1.3.4-2.8.6-4.3.6s-3-.2-4.3-.6c-1.3-.4-2.4-1-3.4-1.8-1-.8-1.7-1.9-2.2-3.2-.5-1.3-.8-2.9-.8-4.8Z"/>
      <path class="cls-2" d="M42.8,32.1c4.3-4.4,4.3-11.3,0-15.7C35.4,8.8,25.6,2.8,15.2.4,9.6-.9,4.2,2.6,2.6,8.1c-3.1,10.4-3.6,22.1-.4,32.5,1.7,5.5,7.4,8.4,13,7.1,10.6-2.5,20.1-7.8,27.6-15.6ZM28.2,21.3c1.9,1.5,1.9,4.4,0,5.8-2.9,2.2-6.1,4-9.5,5.4-2.3.9-4.8-.5-5-3-.4-3.5-.2-7.3.3-11,.4-2.4,2.9-3.8,5.1-2.8,3.2,1.4,6.2,3.3,9.1,5.5h0Z"/>
    </g>
  </g>
</svg>