<?xml version="1.0" encoding="UTF-8"?>
<svg id="Layer_1" xmlns="http://www.w3.org/2000/svg" viewBox="0 0 46 48">
  <defs>
    <style>
      .cls-1 {
        fill: #85c742;
        fill-rule: evenodd;
      }
    </style>
  </defs>
  <path class="cls-1" d="M42.64,32.19c4.27-4.36,4.25-11.35-.04-15.69C35.15,8.88,25.41,2.87,15.03.52,9.43-.74,3.99,2.69,2.36,8.16c-3.11,10.41-3.58,22.13-.36,32.49,1.69,5.45,7.41,8.44,13,7.14,10.65-2.48,20.07-7.8,27.64-15.61ZM28,21.43c1.94,1.5,1.94,4.36-.02,5.84-2.92,2.21-6.11,4.02-9.5,5.4-2.28.93-4.76-.54-5-2.97-.35-3.55-.25-7.26.3-10.97.36-2.42,2.87-3.83,5.12-2.82,3.16,1.42,6.23,3.29,9.1,5.52h0Z"/>
</svg>